<svg width="40" height="40" xmlns="http://www.w3.org/2000/svg"><path d="M5.418 12.532C4.082 12.532 3 13.64 3 15.004v9.658c0 1.367 1.083 2.473 2.418 2.473 1.334 0 2.417-1.106 2.417-2.473v-9.658c0-1.364-1.081-2.472-2.417-2.472zm29.164 0c-1.335 0-2.418 1.107-2.418 2.472v9.658c0 1.367 1.084 2.473 2.418 2.473 1.335 0 2.418-1.106 2.418-2.473v-9.658c0-1.364-1.083-2.472-2.418-2.472zM9.29 30.255a1.89 1.89 0 0 0 1.885 1.898h2.153v5.374c0 1.366 1.082 2.473 2.417 2.473 1.335 0 2.418-1.106 2.418-2.473v-5.374h3.762v5.374c0 1.366 1.083 2.473 2.418 2.473 1.335 0 2.418-1.106 2.418-2.473v-5.374h2.152c1.04 0 1.885-.85 1.885-1.898V12.607H9.285v17.648h.005zM25.1 3.463 27.088.56c.118-.172.09-.398-.064-.505-.155-.107-.376-.052-.494.118L24.465 3.19A12.113 12.113 0 0 0 20 2.35c-1.593 0-3.105.3-4.464.84L13.472.173c-.118-.172-.339-.224-.493-.118-.155.107-.183.333-.065.505l1.987 2.903c-3.16 1.48-5.377 4.29-5.658 7.572h21.513c-.284-3.28-2.499-6.093-5.658-7.572h.003zm-9.639 4.574c-.657 0-1.19-.536-1.19-1.197s.533-1.198 1.19-1.198c.657 0 1.19.537 1.19 1.198 0 .662-.533 1.197-1.19 1.197zm9.224 0c-.657 0-1.19-.536-1.19-1.197s.533-1.198 1.19-1.198c.657 0 1.19.537 1.19 1.198 0 .662-.533 1.197-1.19 1.197z" fill="#5CC348" fill-rule="nonzero"/></svg>