<svg xmlns="http://www.w3.org/2000/svg" xmlns:xlink="http://www.w3.org/1999/xlink" viewBox="0 0 1440 741"><defs><path id="a" d="M0 0h1440v741H0z"/></defs><g fill="none" fill-rule="evenodd"><mask id="b" fill="#fff"><use xlink:href="#a"/></mask><use fill="#2D3441" xlink:href="#a"/><g stroke="#444E60" stroke-width="2" mask="url(#b)"><path d="M1029.182 674H1051v21.818c0 12.052-9.769 21.818-21.818 21.818-12.049 0-21.818-9.766-21.818-21.818 0-12.05 9.77-21.818 21.818-21.818z"/><path d="M1029.182 665.517h30.303v30.3c0 16.737-13.568 30.306-30.303 30.306-16.737 0-30.303-13.569-30.303-30.306 0-16.732 13.566-30.3 30.303-30.3z"/><path d="M1029.182 657.031h38.788v38.788c0 21.423-17.368 38.787-38.788 38.787-21.423 0-38.787-17.364-38.787-38.787s17.364-38.788 38.787-38.788z"/><path d="M1029.182 648.546h47.272v47.272c0 26.108-21.164 47.275-47.272 47.275-26.108 0-47.272-21.167-47.272-47.275 0-26.106 21.164-47.272 47.272-47.272z"/><path d="M1029.182 640.06h55.757v55.757c0 30.797-24.963 55.762-55.757 55.762-30.796 0-55.76-24.965-55.76-55.762 0-30.794 24.964-55.756 55.76-55.756z"/><path d="M1029.182 631.578h64.241v64.24c0 35.48-28.762 64.242-64.24 64.242-35.483 0-64.245-28.762-64.245-64.241 0-35.48 28.762-64.241 64.244-64.241z"/><path d="M1029.182 623.092h72.729v72.726c0 40.167-32.561 72.728-72.729 72.728-40.167 0-72.728-32.56-72.728-72.728 0-40.167 32.56-72.726 72.728-72.726z"/><path d="M1029.182 614.607h81.213v81.21c0 44.856-36.36 81.216-81.213 81.216-44.853 0-81.213-36.36-81.213-81.216 0-44.85 36.36-81.21 81.213-81.21z"/><path d="M1029.182 606.121h89.698v89.698c0 49.538-40.16 89.697-89.698 89.697s-89.697-40.159-89.697-89.697c0-49.538 40.159-89.698 89.697-89.698z"/><path d="M1029.182 597.636h98.182v98.182c0 54.226-43.958 98.182-98.182 98.182C974.958 794 931 750.044 931 695.818c0-54.224 43.958-98.182 98.182-98.182zM1171 412.182h65.456v21.819c0 12.049-9.77 21.818-21.819 21.818h-43.636c-12.05 0-21.818-9.77-21.818-21.818 0-12.05 9.769-21.819 21.818-21.819z"/><path d="M1162.515 403.697h90.909V434c0 16.737-13.566 30.303-30.303 30.303h-60.606c-16.734 0-30.303-13.566-30.303-30.303 0-16.735 13.569-30.303 30.303-30.303z"/><path d="M1154.031 395.213h116.365V434c0 21.423-17.367 38.787-38.79 38.787h-77.575c-21.423 0-38.79-17.364-38.79-38.787s17.367-38.787 38.79-38.787z"/><path d="M1145.546 386.727h141.819V434c0 26.109-21.164 47.275-47.272 47.275h-94.547c-26.108 0-47.272-21.166-47.272-47.275 0-26.108 21.164-47.272 47.272-47.272z"/><path d="M1137.06 378.243h167.275V434c0 30.796-24.965 55.76-55.759 55.76H1137.06c-30.794 0-55.756-24.964-55.756-55.76 0-30.794 24.962-55.757 55.756-55.757z"/><path d="M1128.576 369.758h192.729v64.244c0 35.479-28.762 64.24-64.244 64.24h-128.485c-35.48 0-64.244-28.761-64.244-64.24 0-35.482 28.765-64.244 64.244-64.244z"/><path d="M1120.09 361.272h218.183v72.729c0 40.164-32.56 72.725-72.728 72.725H1120.09c-40.168 0-72.729-32.56-72.729-72.725 0-40.168 32.561-72.729 72.729-72.729z"/><path d="M1111.606 352.788h243.637v81.213c0 44.853-36.36 81.213-81.21 81.213h-162.427c-44.852 0-81.213-36.36-81.213-81.213 0-44.853 36.36-81.213 81.213-81.213z"/><path d="M1103.121 344.303h269.093V434c0 49.538-40.16 89.698-89.698 89.698h-179.395c-49.538 0-89.698-40.16-89.698-89.698s40.16-89.697 89.698-89.697z"/><path d="M1094.637 335.819h294.547V434c0 54.223-43.959 98.182-98.183 98.182h-196.364c-54.224 0-98.182-43.959-98.182-98.182 0-54.224 43.958-98.182 98.182-98.182zm218.181-185.455h109.092v21.818c0 12.05-9.767 21.818-21.819 21.818h-87.273c-12.049 0-21.818-9.769-21.818-21.818 0-12.05 9.77-21.818 21.818-21.818z"/><path d="M1295.85 141.878h151.517v30.303c0 16.737-13.568 30.303-30.306 30.303H1295.85c-16.737 0-30.303-13.566-30.303-30.303 0-16.734 13.566-30.303 30.303-30.303z"/><path d="M1278.879 133.394h193.94v38.787c0 21.423-17.365 38.788-38.788 38.788H1278.88c-21.42 0-38.788-17.365-38.788-38.788 0-21.422 17.368-38.787 38.788-38.787z"/><path d="M1261.91 124.909h236.365v47.272c0 26.108-21.164 47.274-47.275 47.274h-189.09c-26.109 0-47.273-21.166-47.273-47.274 0-26.109 21.164-47.272 47.272-47.272z"/><path d="M1244.94 116.425h278.79v55.756c0 30.794-24.965 55.76-55.759 55.76H1244.94c-30.794 0-55.757-24.966-55.757-55.76 0-30.794 24.963-55.756 55.757-55.756z"/><path d="M1227.97 107.94h321.214v64.243c0 35.479-28.762 64.24-64.244 64.24h-256.97c-35.48 0-64.244-28.761-64.244-64.24 0-35.482 28.765-64.244 64.244-64.244z"/><path d="M1211 99.454h363.637v72.728c0 40.167-32.558 72.726-72.725 72.726H1211c-40.168 0-72.729-32.559-72.729-72.726s32.561-72.728 72.729-72.728z"/><path d="M1194.03 90.97h406.063v81.213c0 44.852-36.36 81.212-81.213 81.212h-324.85c-44.852 0-81.212-36.36-81.212-81.212 0-44.853 36.36-81.213 81.213-81.213z"/><path d="M1177.061 82.484h448.486v89.697c0 49.539-40.157 89.698-89.695 89.698h-358.79c-49.54 0-89.698-40.16-89.698-89.698s40.159-89.697 89.697-89.697z"/><path d="M1160.092 74H1651v98.182c0 54.224-43.956 98.182-98.18 98.182h-392.728c-54.224 0-98.182-43.958-98.182-98.182 0-54.224 43.958-98.182 98.182-98.182z"/></g></g></svg>