<svg width="28" height="28" xmlns="http://www.w3.org/2000/svg"><g stroke="#3381FF" stroke-width="1.5" fill="none" fill-rule="evenodd" stroke-linecap="round"><path d="M16.55 16.463c1.148-.223 2.189-.608 2.998-1.174 1.382-.967 2.088-2.46 2.088-3.936 0-1.035-.42-2-1.148-2.82-.406-.455.78-3.858-.274-3.4-1.054.459-2.6 1.473-3.411 1.249A10.549 10.549 0 0 0 14 6.011c-.86 0-1.686.099-2.457.282-1.12.266-2.192-.728-3.27-1.16-1.078-.432-.49 3.087-.81 3.458-.698.806-1.1 1.751-1.1 2.762 0 1.476.855 2.969 2.237 3.936.92.644 2.075 1.054 3.367 1.256M12.09 16.545c-.848.658-1.272 1.282-1.272 1.872v4.492M16.545 16.545c.849.732 1.273 1.389 1.273 1.97v4.394M6.364 17.818c.38.045.664.211.848.501.276.434 1.304 2.045 2.47 2.045h.5"/></g></svg>