<?xml version="1.0" encoding="UTF-8"?>
<svg width="607px" height="481px" viewBox="0 0 607 481" version="1.1" xmlns="http://www.w3.org/2000/svg" xmlns:xlink="http://www.w3.org/1999/xlink">
    <title>编组 3备份</title>
    <defs>
        <path d="M0,162 L13.072676,95.6251267 C19.8002218,61.4668568 43.8089236,33.2660107 76.4561129,21.174348 L106.833773,9.92325952 C124.345117,3.43751668 143.322655,1.98458895 161.617226,5.72901692 L225.521175,18.8085113 C239.02776,21.5729617 251.816823,27.1003835 263.08514,35.0436231 L307,66 L307,66 L284,135 L243,125 L235,209 L66,209 L70,162 L0,162 Z" id="path-1"></path>
        <filter x="-49.3%" y="-49.3%" width="198.7%" height="198.7%" filterUnits="objectBoundingBox" id="filter-3">
            <feGaussianBlur stdDeviation="50" in="SourceGraphic"></feGaussianBlur>
        </filter>
        <linearGradient x1="50%" y1="40.3233232%" x2="50%" y2="100%" id="linearGradient-4">
            <stop stop-color="#2D3441" offset="0%"></stop>
            <stop stop-color="#324059" offset="100%"></stop>
        </linearGradient>
    </defs>
    <g id="Flat-Web" stroke="none" stroke-width="1" fill="none" fill-rule="evenodd">
        <g id="landingpage" transform="translate(-714.000000, -160.000000)">
            <g id="编组-3备份" transform="translate(714.000000, 160.000000)">
                <g id="编组-2">
                    <rect id="矩形" fill-opacity="0.0763494318" fill="#2F7EFC" x="0" y="0" width="540" height="320"></rect>
                    <g id="编组-7" transform="translate(10.000000, 10.000000)">
                        <rect id="矩形" fill="#72CAFF" x="0" y="0" width="120" height="90" rx="8"></rect>
                        <circle id="椭圆形备份" fill="#F45454" cx="10" cy="10" r="3"></circle>
                        <g id="编组-6备份" transform="translate(29.000000, 18.000000)">
                            <path d="M-6.82121026e-13,72 L0.418017893,66.1477495 C1.07667669,56.9265264 7.07528371,48.9459481 15.75,45.75 C25.0739397,42.3148643 35.1570251,41.4822905 44.91813,43.3415486 L45.75,43.5 C55.0104178,45.2638891 61.8879328,53.0948583 62.4415001,62.5055015 L63,72 L63,72 L-6.82121026e-13,72 Z" id="路径-75备份" fill="#3381FF" transform="translate(31.500000, 56.250000) scale(-1, 1) translate(-31.500000, -56.250000) "></path>
                            <path d="M24,43.5 L22.7434165,43.5 C19.601688,43.5 16.4805053,42.9935018 13.5,42 L13.5,42 L13.5,42 L10.8991097,31.5964388 C9.65608296,26.6243318 9.77730458,21.4089847 11.25,16.5 L11.3448909,16.1836971 C12.7447061,11.5176463 15.6027999,7.42290004 19.5,4.5 C23.3178814,1.63658898 28.1746792,0.534935844 32.8543551,1.47087101 L34.7560651,1.85121301 C38.472973,2.5945946 41.82337,4.58804403 44.25,7.5 C46.7081152,10.4497383 48.3609888,13.9854382 49.047855,17.7632022 L49.5,20.25 C50.4979756,25.7388656 51,31.3064019 51,36.8852549 L51,40.5 L51,40.5 L40.5,42 L36,36 L25.5,36 L24,43.5 Z" id="路径-88" fill="#444E60"></path>
                            <path d="M42.1921089,14.0478011 L42.9293062,15.4678748 C45.2552483,19.9483707 46.1713179,25.0277091 45.5571429,30.0384615 L45.3362246,31.840825 C44.8825943,35.5417711 42.6870147,38.8028367 39.4285714,40.6153846 C38.7609825,40.9867389 38.0679853,41.2976719 37.3575547,41.5474552 L37.4135158,44.8764871 C37.4657668,47.9777074 35.6276412,50.7993083 32.7698149,52.0047652 L32.7698149,52.0047652 L32.5687648,52.08957 C29.7139555,53.2937543 26.4611693,53.0996601 23.7698149,51.5645355 C21.2598539,50.132876 20.0450058,47.1777435 20.8223107,44.3946965 L20.8223107,44.3946965 L22.6333387,37.9121301 C21.2800293,36.3899539 20.3125923,34.5243046 19.8665606,32.4668189 L18.8877551,27.9517185 L16.1384837,27.1165607 C14.6223134,26.6559872 13.6718814,25.1547654 13.9040816,23.5872886 C14.1297664,22.0637951 15.5185043,20.9905876 17.0496715,21.1563975 L19.1571429,21.3846154 L19.4281478,16.8179024 C19.7374952,11.6050792 23.792627,7.39169771 28.9897959,6.88311511 C34.4410615,6.34966722 39.6684844,9.18650672 42.1921089,14.0478011 Z" id="形状结合" fill="#FFFFFF"></path>
                            <path d="M19.155,21.39 L19.5,18 C24.3941645,18.9788329 29.4673722,18.5130511 34.1014811,16.6594075 L34.5,16.5 L34.5,16.5 L33,12 L36,16.5 C38.9593295,16.5 41.8780176,15.8109912 44.5249224,14.4875388 L46.5,13.5 L46.5,13.5 L34.5,4.5 L24,4.5 L15,12 L13.5,18 L19.155,21.39 Z" id="路径-89" fill="#444E60"></path>
                        </g>
                    </g>
                    <g id="编组-7备份-3" transform="translate(409.000000, 10.000000)">
                        <rect id="矩形" fill="#72CAFF" x="0" y="0" width="120" height="90" rx="8"></rect>
                        <circle id="椭圆形备份" fill="#F45454" cx="10" cy="10" r="3"></circle>
                        <g id="编组-6" transform="translate(29.000000, 18.000000)">
                            <path d="M-6.82121026e-13,72 L0.418017893,66.1477495 C1.07667669,56.9265264 7.07528371,48.9459481 15.75,45.75 C25.0739397,42.3148643 35.1570251,41.4822905 44.91813,43.3415486 L45.75,43.5 C55.0104178,45.2638891 61.8879328,53.0948583 62.4415001,62.5055015 L63,72 L63,72 L-6.82121026e-13,72 Z" id="路径-75备份" fill="#3381FF" transform="translate(31.500000, 56.250000) scale(-1, 1) translate(-31.500000, -56.250000) "></path>
                            <path d="M27,42 L26.4961509,42.7557737 C24.936694,45.094959 22.3113509,46.5 19.5,46.5 L19.5,46.5 L19.5,46.5 L16.7090849,47.058183 C13.7237986,47.6552403 10.6272822,46.9018257 8.25,45 L8.01390964,44.8111277 C5.79290805,43.0343264 4.5,40.3442698 4.5,37.5 C4.5,34.5790021 5.44740127,31.7367983 7.2,29.4 L9,27 L9,27 L12.8251605,16.4808087 C14.2576396,12.5414912 16.5360315,8.96396851 19.5,6 L19.7243422,5.77565784 C22.4954923,3.00450765 26.1112648,1.2360919 30,0.75 C33.7857369,0.276782891 37.5779052,1.57790525 40.2756578,4.27565784 L40.5,4.5 L40.5,4.5 L41.8180195,5.37867966 C43.8554074,6.73693826 45.2697831,8.84891532 45.75,11.25 L45.9116516,12.058258 C46.3029271,14.0146355 46.5,16.0048785 46.5,18 C46.5,19.9728863 46.9593392,21.9186784 47.8416408,23.6832816 L48,24 C48.9935018,25.9870035 50.300844,27.800844 51.8717082,29.3717082 L52.5,30 C54.3826654,31.8826654 55.240225,34.5586501 54.8025142,37.184915 L54.75,37.5 C54.2885885,40.2684693 52.3346671,42.555111 49.6720386,43.4426538 L49.5,43.5 L49.5,43.5 L49.1516504,43.8483496 C47.4538272,45.5461728 45.1510847,46.5 42.75,46.5 C40.5105364,46.5 38.5223264,45.0669793 37.8141459,42.9424376 L37.5,42 L37.5,42 L27,42 Z" id="路径-85" fill="#444E60"></path>
                            <path d="M42.1921089,14.0478011 L42.9293062,15.4678748 C45.2552483,19.9483707 46.1713179,25.0277091 45.5571429,30.0384615 L45.3362246,31.840825 C44.8825943,35.5417711 42.6870147,38.8028367 39.4285714,40.6153846 C38.7609825,40.9867389 38.0679853,41.2976719 37.3575547,41.5474552 L37.4135158,44.8764871 C37.4657668,47.9777074 35.6276412,50.7993083 32.7698149,52.0047652 L32.7698149,52.0047652 L32.5687648,52.08957 C29.7139555,53.2937543 26.4611693,53.0996601 23.7698149,51.5645355 C21.2598539,50.132876 20.0450058,47.1777435 20.8223107,44.3946965 L20.8223107,44.3946965 L22.6333387,37.9121301 C21.2800293,36.3899539 20.3125923,34.5243046 19.8665606,32.4668189 L18.8877551,27.9517185 L16.1384837,27.1165607 C14.6223134,26.6559872 13.6718814,25.1547654 13.9040816,23.5872886 C14.1297664,22.0637951 15.5185043,20.9905876 17.0496715,21.1563975 L19.1571429,21.3846154 L19.4281478,16.8179024 C19.7374952,11.6050792 23.792627,7.39169771 28.9897959,6.88311511 C34.4410615,6.34966722 39.6684844,9.18650672 42.1921089,14.0478011 Z" id="形状结合" fill="#FFFFFF"></path>
                            <path d="M19.155,21.39 C19.3484751,17.8065051 22.3105926,15 25.8993066,15 L30,15 L30,15 L32.1282918,15 C33.699156,15 35.2597473,14.7467509 36.75,14.25 C38.1413434,13.7862189 39.1775054,12.6124729 39.4651303,11.1743487 L40.5,6 L40.5,6 L21,6 L16.5,15 L19.155,21.39 Z" id="路径-86" fill="#444E60"></path>
                        </g>
                    </g>
                    <g id="编组-7备份" transform="translate(143.000000, 10.000000)">
                        <rect id="矩形" fill="#72CAFF" x="0" y="0" width="120" height="90" rx="8"></rect>
                        <circle id="椭圆形备份" fill="#F45454" cx="10" cy="10" r="3"></circle>
                        <g id="编组-6备份" transform="translate(29.000000, 16.000000)">
                            <path d="M20.4767442,34.7346939 L18.642003,33.9422258 C15.7516294,32.6938052 13.4754271,30.3485226 12.3139535,27.4221267 L12.0266052,26.698137 C11.0241447,24.1723834 10.6557007,21.4395051 10.9534884,18.7384533 C11.2393466,16.1456064 12.7159526,13.8336057 14.9481369,12.4838193 L15.9418605,11.8829216 L15.9418605,11.8829216 C15.9418605,7.54560889 18.7944341,3.72479983 22.9529033,2.49215404 L23.6511628,2.28517723 C28.5773903,0.82495392 33.885684,1.43154594 38.3554895,3.96547746 L43.8453705,7.07768957 C45.1322141,7.80720088 46.0376443,9.06086885 46.3255814,10.5118153 C46.6091122,11.940558 46.1640796,13.416793 45.1381251,14.4507722 L44.9651163,14.6251343 L44.9651163,14.6251343 C47.5293108,17.2093853 47.6873401,21.3267998 45.328768,24.0999901 L44.0581395,25.593985 L44.0581395,25.593985 L20.4767442,34.7346939 Z" id="路径-83" fill="#444E60"></path>
                            <path d="M-6.82121026e-13,74 L0.424415485,68.0177627 C1.07937764,58.7859151 7.07266168,50.7900904 15.75,47.5714286 C25.0716565,44.1137715 35.162389,43.2757157 44.9267281,45.148242 L45.75,45.3061224 C55.0121394,47.082341 61.8853104,54.9213679 62.4353838,64.3362284 L63,74 L63,74 L-6.82121026e-13,74 Z" id="路径-75备份" fill="#3381FF" transform="translate(31.500000, 58.142857) scale(-1, 1) translate(-31.500000, -58.142857) "></path>
                            <path d="M42.170094,15.6108723 L42.9245473,17.0740731 C45.2542483,21.5923386 46.1714917,26.7067424 45.5571429,31.7530089 L45.3325739,33.5976201 C44.8811121,37.3059309 42.6879203,40.5764985 39.4285714,42.4018838 C38.7609277,42.775795 38.0675271,43.0888263 37.356462,43.3402353 L37.4140115,46.7215927 C37.4659874,49.8274739 35.6289844,52.6545154 32.7698149,53.8687432 L32.7698149,53.8687432 L32.5716772,53.952888 C29.7170312,55.1651948 26.4592859,54.9700048 23.7698149,53.4255187 C21.2573016,51.9826543 20.0417072,49.0207749 20.8162166,46.2288731 L20.8162166,46.2288731 L22.6310776,39.6858321 C21.2815686,38.1609506 20.3179169,36.2940968 19.8748921,34.2365795 L18.8877551,29.6520703 L16.1545181,28.8161351 C14.6280614,28.3492825 13.6717181,26.8371998 13.9040816,25.2579504 C14.1296586,23.7248254 15.5272012,22.644533 17.0677038,22.8124887 L19.1571429,23.040293 L19.4317301,18.3817379 C19.7390338,13.1681255 23.7922994,8.95221772 28.9897959,8.44014311 C34.4376,7.90340736 39.6613617,10.7453902 42.170094,15.6108723 Z" id="形状结合" fill="#FFFFFF"></path>
                            <path d="M18.8709677,22.6530612 L19.1793096,22.5285202 C21.9171963,21.4226726 23.7096774,18.7655074 23.7096774,15.8127251 L23.7096774,15.8127251 L23.7096774,15.8127251 L25.5866984,16.1286164 C32.0226398,17.2117466 38.6027058,17.1046765 45,15.8127251 L45,15.8127251 L45,15.8127251 L42.0967742,7.99519808 L25.6451613,6.04081633 L15,14.8355342 L18.8709677,22.6530612 Z" id="路径-84" fill="#444E60"></path>
                        </g>
                    </g>
                    <g id="编组-7备份-2" transform="translate(276.000000, 10.000000)">
                        <rect id="矩形" fill="#72CAFF" x="0" y="0" width="120" height="90" rx="8"></rect>
                        <circle id="椭圆形备份" fill="#F45454" cx="10" cy="10" r="3"></circle>
                        <g id="编组-6" transform="translate(29.000000, 17.000000)">
                            <path d="M0,73 L0.419224439,67.1233715 C1.07718604,57.9001596 7.07479203,49.9167231 15.75,46.7165171 C25.0735125,43.2771573 35.1580285,42.4435553 44.9197387,44.3053004 L45.75,44.4636471 C55.01074,46.2298476 61.8874384,54.0623282 62.4403468,63.4737607 L63,73 L63,73 L0,73 Z" id="路径-75备份" fill="#3381FF" transform="translate(31.500000, 57.229910) scale(-1, 1) translate(-31.500000, -57.229910) "></path>
                            <path d="M38.2945143,1.93915076 L39,2.41007447 L42.3372987,1.74176335 C44.9375975,1.22104025 47.6260014,2.03559886 49.5,3.91198778 L49.6427673,4.05493716 C51.3764662,5.79084749 51.9101633,8.39228703 51,10.6705977 C50.0395638,13.0747508 48.1634439,14.9989214 45.7843428,16.0198367 L44.25,16.6782509 C43.9243445,16.8179956 43.5952825,16.9476304 43.2632798,17.067112 C43.1553951,16.8399788 43.0436311,16.6162725 42.9284081,16.3940336 L42.9284081,16.3940336 L42.1879653,14.9658888 C39.6671445,10.1038014 34.4404111,7.26599137 28.9897959,7.80005596 C23.7925661,8.30929324 19.7377853,12.5231491 19.4288232,17.7361197 L19.4288232,17.7361197 L19.1571429,22.3200535 L17.0530528,22.0919112 C15.5201347,21.9256999 14.1297461,23.0002364 13.9040816,24.5255363 C13.6718507,26.09522 14.6233923,27.5984773 16.1414922,28.0602251 L16.1414922,28.0602251 L18.8877551,28.8955332 L19.8681312,33.4236474 C20.0952332,34.4725752 20.4578134,35.4717011 20.9379324,36.4009409 L21,36.9540806 C18.1671841,36.0086042 15.9448384,33.7845581 15.0015289,30.9510199 L15,30.9464273 L11.8125254,26.9570019 C9.99178809,24.6781772 9,21.8479901 9,18.9311209 C9,16.0142517 9.99178809,13.1840645 11.8125254,10.9052399 L12.1910575,10.4314711 C13.9029352,8.28889465 16.4650046,7.00940731 19.1959063,6.92074823 L19.5,6.9158144 L22.2760735,4.13619988 C24.3727658,2.0368332 27.0734087,0.645591893 30,0.15720451 C32.8908422,-0.325217088 35.8568827,0.311990178 38.2945143,1.93915076 Z" id="形状结合" fill="#444E60"></path>
                            <path d="M42.1879653,14.9658888 L42.9284081,16.3940336 C45.2550595,20.8816127 46.1713508,25.9675261 45.5571429,30.9849379 L45.3355359,32.795226 C44.8823148,36.497551 42.6871846,39.7603978 39.4285714,41.5753523 C38.7612206,41.9470477 38.0684153,42.2582808 37.3581433,42.5083216 L37.4136093,45.8474461 C37.4658084,48.9495392 35.6278936,51.7721594 32.7698149,52.9792605 L32.7698149,52.9792605 L32.5693104,53.063943 C29.7145312,54.2696506 26.4608167,54.0753506 23.7698149,52.5384692 C21.2593731,51.104709 20.0443834,48.1483128 20.8211617,45.3636043 L20.8211617,45.3636043 L22.6319814,38.8686472 C21.2798755,37.3461554 20.3134935,35.4806652 19.8681312,33.4236474 L18.8877551,28.8955332 L16.1414922,28.0602251 C14.6233923,27.5984773 13.6718507,26.09522 13.9040816,24.5255363 C14.1297461,23.0002364 15.5201347,21.9256999 17.0530528,22.0919112 L19.1571429,22.3200535 L19.4288232,17.7361197 C19.7377853,12.5231491 23.7925661,8.30929324 28.9897959,7.80005596 C34.4404111,7.26599137 39.6671445,10.1038014 42.1879653,14.9658888 Z" id="形状结合" fill="#FFFFFF"></path>
                            <path d="M9,18.9311209 C9,16.0144152 9.99139727,13.1845537 11.8111277,10.9069892 L12.1888723,10.4342062 C13.881064,8.31626849 16.4016052,7.04121277 19.0948068,6.92458147 L19.5,6.9158144 L22.274128,4.13814787 C24.3721597,2.03744005 27.0733052,0.645609157 30,0.15720451 C32.8910779,-0.325256422 35.8571699,0.312181842 38.2958733,1.94005789 L39,2.41007447 L42.3397485,1.74127277 C44.9388434,1.22079076 47.6257661,2.03536318 49.5,3.91198778 L49.6440851,4.05625665 C51.3766494,5.79103091 51.9099874,8.39272748 51,10.6705977 C50.0395661,13.074745 48.164642,14.9984072 45.7876894,16.0184006 L44.25,16.6782509 C40.8364534,18.1430655 37.0495766,18.4971406 33.4241856,17.6904705 L25.5,15.9272943 C25.5,19.303236 22.8765921,22.0964028 19.5113021,22.3035167 L19.155,22.325445 C12.385,22.0070327 9,20.8755913 9,18.9311209 Z" id="形状结合" fill="#444E60"></path>
                        </g>
                    </g>
                </g>
                <g id="编组" transform="translate(101.277329, 127.000000)">
                    <path d="M391.598179,326.847062 C399.012,330.743531 407.833371,330.89763 415.378761,327.262481 L478.812464,296.701973 L478.812464,296.701973 L459.169607,252.929652 L403.322225,271.095165 L385.519093,308.623505 C382.330317,315.345326 385.012504,323.385841 391.598179,326.847062 Z" id="路径-8" fill="#FFDAC7" transform="translate(429.312464, 292.985455) rotate(-78.000000) translate(-429.312464, -292.985455) "></path>
                    <path d="M60.4911692,191.281828 L117.576379,265.08027 C122.944433,272.019966 129.742109,277.724096 137.508385,281.805804 C144.922207,285.702272 153.743578,285.856371 161.288967,282.221222 L224.722671,251.660714 L224.722671,251.660714 L205.079814,207.888393 L149.232431,226.053906 L66.0083851,163.290179 L68.5535128,139.212692 C69.4545091,130.689063 67.7449433,122.092817 63.6512423,114.5625 L62.4927257,112.431422 C59.4177349,106.775011 53.1199237,103.661142 46.7583851,104.651786 L41.0535066,105.540172 C39.3223636,105.809752 38.1375329,107.431659 38.4071132,109.162802 C38.4778448,109.617013 38.6464454,110.050427 38.9012423,110.433036 C40.5919505,112.971843 43.5518676,114.362718 46.5854068,114.043852 L49.5083851,113.736607 L49.5083851,113.736607 L52.2284729,115.642729 C54.9428485,117.544849 56.5123156,120.689706 56.400392,124.002313 C56.3058071,126.801744 53.9597445,128.994454 51.1603143,128.899869 C51.0816877,128.897213 51.0031335,128.892727 50.9247155,128.886416 L49.7227788,128.789683 C45.7342886,128.468686 42.2618483,125.940218 40.7318352,122.242901 L35.4449567,109.467019 C34.7137354,107.700003 32.6885143,106.860326 30.9214986,107.591547 C30.6878393,107.68824 30.4654752,107.810237 30.2583851,107.955357 C28.1321945,109.445301 27.1549282,112.099028 27.8069653,114.612087 L32.5799775,133.008072 C33.3889197,136.12587 34.0467517,139.280932 34.5511726,142.462223 L36.3661937,153.909231 C37.7613434,162.708187 41.79639,170.875784 47.9369565,177.330357 L53.8443844,183.539869 C56.1902839,186.00573 58.4087661,188.589746 60.4911692,191.281828 Z" id="路径-8" fill="#FFDAC7" transform="translate(125.722671, 195.500000) rotate(-9.000000) translate(-125.722671, -195.500000) "></path>
                    <g id="编组-8" transform="translate(158.722671, 144.000000)">
                        <mask id="mask-2" fill="white">
                            <use xlink:href="#path-1"></use>
                        </mask>
                        <use id="路径-75备份" fill="#3381FF" transform="translate(153.500000, 104.500000) scale(-1, 1) translate(-153.500000, -104.500000) " xlink:href="#path-1"></use>
                        <circle id="椭圆形" fill="#165DCF" style="mix-blend-mode: multiply;" filter="url(#filter-3)" mask="url(#mask-2)" cx="190.277329" cy="-73" r="152"></circle>
                    </g>
                    <path d="M309.193259,161.875 L307.237867,164.816505 C301.257675,173.812538 291.172104,179.21875 280.36973,179.21875 L280.36973,179.21875 L280.36973,179.21875 L269.662144,181.366413 C258.180429,183.669346 246.268477,180.765704 237.134436,173.4375 L236.2507,172.728483 C227.698665,165.867219 222.722671,155.495476 222.722671,144.53125 C222.722671,133.271915 226.366623,122.314953 233.109833,113.298204 L240.016788,104.0625 L240.016788,104.0625 L255.522419,61.2996424 C260.497546,47.5787785 268.41579,35.1132458 278.721215,24.7782459 L281.254744,22.2374458 C291.88884,11.5728307 305.779152,4.7639257 320.722671,2.890625 C335.268426,1.0671875 349.839558,6.07544962 360.190598,16.4561958 L361.075612,17.34375 L361.075612,17.34375 L366.118024,20.7150054 C373.963312,25.9602075 379.40639,34.1044248 381.252083,43.359375 L382.203282,48.1290222 C383.487595,54.5690148 384.134436,61.1198553 384.134436,67.6866631 L384.134436,69.375 C384.134436,76.979353 385.900517,84.4797994 389.293495,91.28523 L389.899141,92.5 C393.71735,100.158333 398.744175,107.151668 404.786481,113.211314 L407.193259,115.625 C414.430468,122.882979 417.726104,133.184063 416.045763,143.295042 L415.840318,144.53125 C414.066936,155.202078 406.542493,164.019628 396.28336,167.449153 L395.663847,167.65625 L395.663847,167.65625 L394.31048,169.013502 C387.795874,175.546804 378.948944,179.21875 369.722671,179.21875 C361.117576,179.21875 353.479407,173.708484 350.765249,165.542641 L349.5462,161.875 L349.5462,161.875 L309.193259,161.875 Z" id="路径-85" fill="url(#linearGradient-4)" transform="translate(320.722671, 92.500000) scale(-1, 1) translate(-320.722671, -92.500000) "></path>
                    <path d="M368.667785,45.9011194 L371.528219,51.4199778 C380.50738,68.7441683 384.043534,88.3768314 381.673291,107.74523 L380.817462,114.738624 C379.068882,129.027112 370.598359,141.620048 358.023294,148.6262 L357.762781,148.76869 L361.961176,163.444989 C365.214051,174.816281 361.320257,187.0132 352.118609,194.398758 L351.775383,194.670086 L351.113057,195.185751 C341.676552,202.532682 329.353422,205.058204 317.787651,202.015512 C306.99706,199.176752 299.514988,189.369212 299.628223,178.212035 L299.628223,178.212035 L299.971749,144.365881 C291.309613,137.734796 285.173496,128.097384 282.985522,117.073899 L280.390575,104 L274.612236,102.073887 C267.241804,99.6170761 262.13132,92.8929326 261.737436,85.1338057 C261.424054,78.9604816 266.174475,73.701967 272.347799,73.3885846 C272.870436,73.3620535 273.39429,73.3722102 273.915505,73.4189798 L280.390575,74 L281.229246,56.6121212 C282.197515,36.5373147 297.738036,20.2077603 317.740333,18.2472706 C338.773496,16.1857425 358.942668,27.1376991 368.667785,45.9011194 Z" id="形状结合" fill="#FFDAC7" transform="translate(322.056623, 110.638927) scale(-1, 1) translate(-322.056623, -110.638927) "></path>
                    <path d="M289.722671,74 C291.134469,65.2485041 299.033488,59.050463 307.869621,59.7608223 L319.480289,60.6942335 C330.216408,61.5573375 341.019637,60.4325109 351.347671,57.3762183 C360.95759,54.5324317 368.202792,46.6013079 370.16808,36.7740344 L372.722671,24 L372.722671,24 L335.722671,14 L297.972671,24 L280.722671,58.502924 L289.722671,74 Z" id="路径-86" fill="#2D3441" transform="translate(326.722671, 44.000000) scale(-1, 1) translate(-326.722671, -44.000000) "></path>
                    <path d="M11.0741913,119.257002 L15.0741913,113.257002 L27.0741913,117.257002 L64.1383059,140.337274 C67.4156257,142.378101 68.4180014,146.68931 66.3771748,149.96663 C66.338928,150.02805 66.2997299,150.088872 66.2595947,150.149075 C64.0384168,153.480842 59.5584513,154.420636 56.1855899,152.262371 L19.4959739,128.785 L19.4959739,128.785 L11.0741913,119.257002 Z" id="路径-20" fill="#3381FF" transform="translate(40.666893, 134.703038) rotate(-19.000000) translate(-40.666893, -134.703038) "></path>
                    <path d="M6.21989029,130.140916 L3.49649452,127.962199 C2.19264221,126.919117 1.86081323,125.072711 2.71989029,123.640916 C3.56630293,122.230228 5.35612183,121.709032 6.82757125,122.444756 L10.2198903,124.140916 L10.2198903,124.140916 L6.21989029,130.140916 Z" id="路径-21" fill="#FFFFFF" transform="translate(5.719890, 125.640916) rotate(-19.000000) translate(-5.719890, -125.640916) "></path>
                    <path d="M60.6344098,201.538216 L61.7048409,173.028107 C44.2586649,153.022481 34.9312749,142.013112 33.7226708,140 L23.0655928,124.668364 C22.0900569,123.043462 19.9819857,122.517047 18.3570841,123.492583 C18.1336074,123.626751 17.9261447,123.785944 17.7387095,123.967081 C15.8717745,125.771291 15.3216743,128.545224 16.3588128,130.925343 L23.9508273,148.348179 C25.2375412,151.301045 26.3808345,154.314355 27.3767087,157.37757 L30.9600904,168.399715 C33.7145235,176.872092 38.9775858,184.307912 46.0522694,189.722422 L52.8583487,194.93136 C55.5611118,196.999882 58.1565101,199.205037 60.6344098,201.538216 Z" id="路径-8" fill="#FFDAC7"></path>
                    <path d="M286.722671,149 C302.395533,156.522974 320.749599,155.94492 335.918004,147.450614 L336.722671,147 L336.722671,147 L335.743495,147.979176 C322.318404,161.404267 300.695017,161.854559 286.722671,149 L286.722671,149 L286.722671,149 Z" id="路径-23" fill="#444E60" opacity="0.100000001"></path>
                    <path d="M292.722671,84 C293.580589,89.1496258 293.247256,94.8162924 291.722671,101 C289.435793,110.275561 284.722671,111 286.722671,116 C288.056004,119.333333 293.056004,120.666667 301.722671,120" id="路径-37" stroke="#2D3441" stroke-width="2" stroke-linecap="square"></path>
                    <circle id="椭圆形" fill="#2D3441" cx="316.722671" cy="84" r="3"></circle>
                    <circle id="椭圆形备份-2" fill="#2D3441" cx="274.722671" cy="84" r="3"></circle>
                    <path d="M153.722671,222 L61.7048409,173.028107 M60.4520851,148.848909 C60.0085992,140.289273 56.9753319,132.066296 51.75403,125.269086 L50.2764026,123.345477 C46.3544126,118.23974 39.6470214,116.149403 33.5187747,118.123014 M23.9508273,148.348179 C25.2375412,151.301045 26.3808345,154.314355 27.3767087,157.37757 L30.9600904,168.399715 C33.7145235,176.872092 38.9775858,184.307912 46.0522694,189.722422 L52.8583487,194.93136 C55.5611118,196.999882 58.1565101,199.205037 60.6344098,201.538216 M128.561426,265.497982 C134.948998,271.51249 142.555306,276.083002 150.864486,278.899544 C158.796573,281.588263 167.533444,280.360499 174.417275,275.589746" id="形状" stroke="#2D3441" stroke-width="2"></path>
                    <path d="M5.72267083,111 L13.398932,92.6234959 C24.2698686,66.5991325 54.1794188,54.314853 80.2037822,65.1857896 C84.1251681,66.8238368 87.8267473,68.9449718 91.2226708,71.5 C118.533407,92.0480776 157.330641,86.5658598 177.878719,59.2551237 C178.620481,58.2692374 179.332594,57.261389 180.014103,56.2329299 L198.722671,28 L198.722671,28" id="路径-34" stroke="#0016FF" stroke-width="2"></path>
                    <path d="M181.722671,279 L222.722671,269 L226.519058,308.862062 M202.637531,179.043623 L158.722671,210 M222.722671,269 L224.722671,254 M222.722671,269 L216.722671,259" id="形状" stroke="#2D3441" stroke-width="2"></path>
                    <circle id="椭圆形" fill-opacity="0.198208042" fill="#FF3333" cx="325.722671" cy="108" r="9"></circle>
                    <circle id="椭圆形备份-3" fill-opacity="0.198208042" fill="#FF3333" cx="266.722671" cy="108" r="9"></circle>
                    <line x1="391.722671" y1="259" x2="399.722671" y2="353" id="路径-4" stroke="#2D3441" stroke-width="2"></line>
                    <path d="M402.496855,313.856499 L450.075979,323.920259 C451.35275,324.190316 452.544522,324.767313 453.548239,325.601355 C456.961109,328.43729 457.428808,333.502947 454.592873,336.915817 C448.985661,343.663747 441.992863,349.126922 434.088736,352.934827 L434.088736,352.934827 L433.953,352.999499 L357.433,352.999499 L402.496855,313.856499 Z" id="形状结合" fill="#FFDAC7"></path>
                </g>
                <g id="编组-13" transform="translate(510.000000, 112.000000)">
                    <path d="M81.2307692,0 C89.3875902,2.77973145e-16 96,6.61240985 96,14.7692308 L96,60.6593407 C96,68.8161616 89.3875902,75.4285714 81.2307692,75.4285714 L56.572,75.428 L36,96 L36,75.428 L14.7692308,75.4285714 C6.61240985,75.4285714 4.55163614e-15,68.8161616 0,60.6593407 L0,14.7692308 C-9.98922463e-16,6.61240985 6.61240985,3.27474053e-15 14.7692308,0 L81.2307692,0 Z" id="形状结合" fill="#72CAFF"></path>
                    <path d="M36,75.4285714 L14.7692308,75.4285714 C6.61240985,75.4285714 -4.54747351e-13,68.8161616 -4.54747351e-13,60.6593407 M81.2307692,0 C89.3875902,0 96,6.61240985 96,14.7692308" id="形状" stroke="#2D3441" stroke-width="2"></path>
                    <path d="M24,30 C27.3137085,30 30,32.6862915 30,36 C30,39.3137085 27.3137085,42 24,42 C20.6862915,42 18,39.3137085 18,36 C18,32.6862915 20.6862915,30 24,30 Z M48,30 C51.3137085,30 54,32.6862915 54,36 C54,39.3137085 51.3137085,42 48,42 C44.6862915,42 42,39.3137085 42,36 C42,32.6862915 44.6862915,30 48,30 Z M72,30 C75.3137085,30 78,32.6862915 78,36 C78,39.3137085 75.3137085,42 72,42 C68.6862915,42 66,39.3137085 66,36 C66,32.6862915 68.6862915,30 72,30 Z" id="形状结合" fill="#FFFFFF"></path>
                </g>
            </g>
        </g>
    </g>
</svg>