<svg width="40" height="40" xmlns="http://www.w3.org/2000/svg"><path d="M36 29.318c-.05.152-.821 2.892-2.717 5.71-1.641 2.43-3.338 4.879-6.018 4.922-2.636.047-3.48-1.6-6.488-1.6-3.006 0-3.95 1.557-6.441 1.647-2.575.107-4.557-2.654-6.204-5.073C4.765 29.971 2.173 20.887 5.65 14.8c1.71-3.046 4.785-4.982 8.133-5.035 2.523-.048 4.923 1.74 6.456 1.74 1.574 0 4.478-2.164 7.541-1.84 1.283.056 4.871.546 7.183 3.956-.182.126-4.293 2.595-4.248 7.62.062 6.067 5.23 8.057 5.285 8.078M25.776 6.414C27.157 4.7 28.065 2.341 27.826 0c-1.972.079-4.376 1.333-5.804 3.038-1.263 1.488-2.376 3.882-2.065 6.196 2.191.136 4.445-1.168 5.819-2.82" fill="#000" fill-rule="nonzero"/></svg>