<svg xmlns="http://www.w3.org/2000/svg" viewBox="0 0 40 40"><path d="M22.014 13.27v-.331l-1.022.071c-.29.018-.51.08-.657.183a.507.507 0 0 0-.219.438c0 .183.072.326.219.433.143.108.34.161.58.161.157 0 .3-.022.434-.071.134-.05.25-.112.348-.197a.882.882 0 0 0 .317-.688zM20 0C8.839 0 0 8.839 0 20s8.839 20 20 20 20-8.839 20-20S31.161 0 20 0zm3.881 11.854c.094-.264.228-.492.402-.684.174-.187.38-.335.621-.438a2.06 2.06 0 0 1 .813-.151c.268 0 .513.04.728.12.219.08.402.188.558.326.156.134.277.295.37.474.09.183.144.375.162.576h-.804a.918.918 0 0 0-.313-.558.973.973 0 0 0-.3-.166 1.183 1.183 0 0 0-.388-.058 1.017 1.017 0 0 0-.822.393 1.345 1.345 0 0 0-.227.46c-.054.179-.08.38-.08.599 0 .228.026.433.08.612.053.178.13.33.232.455a.981.981 0 0 0 .362.286c.138.067.294.098.46.098.277 0 .5-.062.67-.192.174-.13.285-.317.34-.567h.803a1.61 1.61 0 0 1-.183.603 1.605 1.605 0 0 1-.38.464 1.6 1.6 0 0 1-.554.295 2.17 2.17 0 0 1-.696.107c-.3 0-.572-.049-.818-.147a1.738 1.738 0 0 1-.625-.429 1.903 1.903 0 0 1-.402-.679 2.712 2.712 0 0 1-.143-.902 2.58 2.58 0 0 1 .134-.897zm-11.425-1.215h.804v.714h.014c.049-.12.111-.227.192-.317.08-.094.17-.174.272-.241a1.319 1.319 0 0 1 .733-.205c.295 0 .545.071.746.21.205.142.348.343.433.607h.022c.054-.125.125-.241.215-.34a1.341 1.341 0 0 1 .679-.42 1.657 1.657 0 0 1 .99.04 1.2 1.2 0 0 1 .71.72c.064.17.1.362.1.572v2.871h-.84v-2.666c0-.277-.072-.491-.215-.643-.143-.152-.344-.228-.607-.228a.942.942 0 0 0-.357.067.754.754 0 0 0-.277.192.892.892 0 0 0-.183.295 1.002 1.002 0 0 0-.067.375v2.617h-.822v-2.742a.871.871 0 0 0-.058-.33.687.687 0 0 0-.416-.416.974.974 0 0 0-.696.014.809.809 0 0 0-.282.2.838.838 0 0 0-.183.304c-.04.116-.112.241-.112.38v2.586h-.795v-4.216zm1.827 20.183c-3.689 0-5.998-2.564-5.998-6.65 0-4.087 2.309-6.66 5.998-6.66 3.69 0 5.99 2.573 5.99 6.66 0 4.086-2.305 6.65-5.99 6.65zm6.825-15.976a1.813 1.813 0 0 1-.992-.036 1.275 1.275 0 0 1-.451-.254 1.168 1.168 0 0 1-.402-.907c0-.37.139-.661.415-.867.277-.21.675-.33 1.197-.361l1.14-.067v-.326c0-.241-.077-.43-.233-.554-.156-.125-.37-.192-.656-.192a1.21 1.21 0 0 0-.318.04.922.922 0 0 0-.259.12.697.697 0 0 0-.29.438h-.79c.004-.187.049-.357.138-.518.09-.16.205-.295.353-.41a1.73 1.73 0 0 1 .527-.273 2.23 2.23 0 0 1 .66-.098c.255 0 .488.03.698.098a1.6 1.6 0 0 1 .536.277c.147.12.259.263.339.433.08.17.12.362.12.567v2.894h-.803v-.7h-.023a1.173 1.173 0 0 1-.227.307c-.094.094-.197.17-.309.237a1.318 1.318 0 0 1-.37.152zm5.306 15.976c-2.814 0-4.726-1.474-4.855-3.788h1.83c.144 1.322 1.421 2.198 3.172 2.198 1.68 0 2.885-.876 2.885-2.073 0-1.036-.732-1.661-2.43-2.09l-1.652-.41c-2.376-.59-3.457-1.671-3.457-3.449 0-2.188 1.912-3.707 4.632-3.707 2.662 0 4.515 1.528 4.587 3.725h-1.814c-.125-1.322-1.206-2.135-2.814-2.135-1.598 0-2.706.822-2.706 2.01 0 .938.697 1.492 2.394 1.92l1.393.349c2.653.643 3.743 1.688 3.743 3.564 0 2.394-1.89 3.886-4.908 3.886zm-12.13-11.67c-2.529 0-4.105 1.938-4.105 5.015 0 3.073 1.58 5.007 4.104 5.007 2.52 0 4.105-1.939 4.105-5.007 0-3.077-1.59-5.016-4.105-5.016z"/></svg>