<?xml version="1.0" encoding="UTF-8"?>
<svg width="415px" height="501px" viewBox="0 0 415 501" version="1.1" xmlns="http://www.w3.org/2000/svg" xmlns:xlink="http://www.w3.org/1999/xlink">
    <title>编组 46</title>
    <defs>
        <filter x="-37.5%" y="-32.1%" width="175.0%" height="164.3%" filterUnits="objectBoundingBox" id="filter-1">
            <feGaussianBlur stdDeviation="-2 3.46410162" in="SourceGraphic"></feGaussianBlur>
        </filter>
        <filter x="-80.0%" y="-80.0%" width="260.0%" height="260.0%" filterUnits="objectBoundingBox" id="filter-2">
            <feGaussianBlur stdDeviation="-2 3.46410162" in="SourceGraphic"></feGaussianBlur>
        </filter>
        <filter x="-32.1%" y="-32.1%" width="164.3%" height="164.3%" filterUnits="objectBoundingBox" id="filter-3">
            <feGaussianBlur stdDeviation="-2 3.46410162" in="SourceGraphic"></feGaussianBlur>
        </filter>
        <filter x="-90.0%" y="-68.6%" width="270.6%" height="237.2%" filterUnits="objectBoundingBox" id="filter-4">
            <feGaussianBlur stdDeviation="-2 3.46410162" in="SourceGraphic"></feGaussianBlur>
        </filter>
        <filter x="-32.1%" y="-37.5%" width="164.3%" height="175.0%" filterUnits="objectBoundingBox" id="filter-5">
            <feGaussianBlur stdDeviation="-2 3.46410162" in="SourceGraphic"></feGaussianBlur>
        </filter>
        <filter x="-67.5%" y="-112.5%" width="235.0%" height="325.0%" filterUnits="objectBoundingBox" id="filter-6">
            <feGaussianBlur stdDeviation="-2 3.46410162" in="SourceGraphic"></feGaussianBlur>
        </filter>
        <filter x="-200.0%" y="-200.0%" width="500.0%" height="500.0%" filterUnits="objectBoundingBox" id="filter-7">
            <feGaussianBlur stdDeviation="-2 3.46410162" in="SourceGraphic"></feGaussianBlur>
        </filter>
    </defs>
    <g id="Flat-Web" stroke="none" stroke-width="1" fill="none" fill-rule="evenodd" opacity="0.239999995">
        <g id="landingpage" transform="translate(-187.000000, -77.000000)">
            <g id="编组-46" transform="translate(204.056815, 94.280358)">
                <path d="M345.943185,420.719642 L361.543185,420.719642 L361.543185,420.719642 L375.943185,434.719642 L375.943185,456.719642 C375.943185,460.033351 373.256894,462.719642 369.943185,462.719642 L345.943185,462.719642 C342.629477,462.719642 339.943185,460.033351 339.943185,456.719642 L339.943185,426.719642 C339.943185,423.405934 342.629477,420.719642 345.943185,420.719642 Z" id="矩形" stroke="#66A1FF" stroke-width="3" stroke-linecap="round" stroke-linejoin="round" filter="url(#filter-1)" transform="translate(357.943185, 441.719642) rotate(-15.000000) translate(-357.943185, -441.719642) "></path>
                <path d="M357.091349,418.462044 L372.091349,433.462044 L363.636804,433.462044 C360.021849,433.462044 357.091349,430.531544 357.091349,426.916589 L357.091349,418.462044 L357.091349,418.462044 Z" id="矩形" fill="#66A1FF" filter="url(#filter-2)" transform="translate(364.591349, 425.962044) rotate(-15.000000) translate(-364.591349, -425.962044) "></path>
                <circle id="椭圆形" stroke="#66A1FF" stroke-width="3" stroke-linecap="round" stroke-linejoin="round" filter="url(#filter-3)" transform="translate(279.943185, 25.719642) rotate(-345.000000) translate(-279.943185, -25.719642) " cx="279.943185" cy="25.7196423" r="21"></circle>
                <path d="M277.129743,18.7297361 L287.714267,25.0804505 C288.424638,25.5066728 288.654985,26.4280631 288.228763,27.1384335 C288.102089,27.349558 287.925392,27.5262547 287.714267,27.6529293 L277.129743,34.0036437 C276.419373,34.429866 275.497983,34.1995184 275.07176,33.489148 C274.931886,33.2560249 274.858,32.9892703 274.858,32.7174043 L274.858,20.0159755 C274.858,19.1875484 275.529573,18.5159755 276.358,18.5159755 C276.629866,18.5159755 276.89662,18.5898622 277.129743,18.7297361 Z" id="路径-32" stroke="#66A1FF" stroke-width="3" stroke-linecap="round" stroke-linejoin="round" filter="url(#filter-4)" transform="translate(282.358000, 26.366690) rotate(-345.000000) translate(-282.358000, -26.366690) "></path>
                <rect id="矩形" stroke="#66A1FF" stroke-width="3" stroke-linecap="round" stroke-linejoin="round" filter="url(#filter-5)" transform="translate(24.943185, 434.719642) rotate(-15.000000) translate(-24.943185, -434.719642) " x="3.94318516" y="416.719642" width="42" height="36" rx="6"></rect>
                <path d="M22.2916544,444.962283 C22.2916544,441.648574 24.9779459,438.962283 28.2916544,438.962283 L33.0608852,438.962283 L33.0608852,438.962283 C33.0608852,435.648574 35.7471767,432.962283 39.0608852,432.962283 L42.2916544,432.962283 L42.2916544,432.962283" id="路径-30" stroke="#66A1FF" stroke-width="3" stroke-linecap="round" stroke-linejoin="round" filter="url(#filter-6)" transform="translate(32.291654, 438.962283) rotate(-15.000000) translate(-32.291654, -438.962283) "></path>
                <circle id="椭圆形" fill="#66A1FF" filter="url(#filter-7)" transform="translate(13.731013, 431.512278) rotate(-15.000000) translate(-13.731013, -431.512278) " cx="13.7310126" cy="431.512278" r="3"></circle>
            </g>
        </g>
    </g>
</svg>