<svg width="415" height="501" xmlns="http://www.w3.org/2000/svg"><defs><filter x="-37.5%" y="-32.1%" width="175%" height="164.3%" filterUnits="objectBoundingBox" id="a"><feGaussianBlur stdDeviation="-2 3.46410162" in="SourceGraphic"/></filter><filter x="-80%" y="-80%" width="260%" height="260%" filterUnits="objectBoundingBox" id="b"><feGaussianBlur stdDeviation="-2 3.46410162" in="SourceGraphic"/></filter><filter x="-32.1%" y="-32.1%" width="164.3%" height="164.3%" filterUnits="objectBoundingBox" id="c"><feGaussianBlur stdDeviation="-2 3.46410162" in="SourceGraphic"/></filter><filter x="-90%" y="-68.6%" width="270.6%" height="237.2%" filterUnits="objectBoundingBox" id="d"><feGaussianBlur stdDeviation="-2 3.46410162" in="SourceGraphic"/></filter><filter x="-32.1%" y="-37.5%" width="164.3%" height="175%" filterUnits="objectBoundingBox" id="e"><feGaussianBlur stdDeviation="-2 3.46410162" in="SourceGraphic"/></filter><filter x="-67.5%" y="-112.5%" width="235%" height="325%" filterUnits="objectBoundingBox" id="f"><feGaussianBlur stdDeviation="-2 3.46410162" in="SourceGraphic"/></filter><filter x="-200%" y="-200%" width="500%" height="500%" filterUnits="objectBoundingBox" id="g"><feGaussianBlur stdDeviation="-2 3.46410162" in="SourceGraphic"/></filter></defs><g transform="translate(17.057 17.28)" fill="none" fill-rule="evenodd" opacity=".24"><path d="M345.943 420.72h15.6l14.4 14v22a6 6 0 0 1-6 6h-24a6 6 0 0 1-6-6v-30a6 6 0 0 1 6-6z" stroke="#66A1FF" stroke-width="3" stroke-linecap="round" stroke-linejoin="round" filter="url(#a)" transform="rotate(-15 357.943 441.72)"/><path d="m357.091 418.462 15 15h-8.454a6.545 6.545 0 0 1-6.546-6.545v-8.455z" fill="#66A1FF" filter="url(#b)" transform="rotate(-15 364.591 425.962)"/><circle stroke="#66A1FF" stroke-width="3" stroke-linecap="round" stroke-linejoin="round" filter="url(#c)" transform="rotate(15 279.943 25.72)" cx="279.943" cy="25.72" r="21"/><path d="m277.13 18.73 10.584 6.35a1.5 1.5 0 0 1 0 2.573l-10.584 6.35a1.5 1.5 0 0 1-2.272-1.286V20.016a1.5 1.5 0 0 1 2.272-1.286z" stroke="#66A1FF" stroke-width="3" stroke-linecap="round" stroke-linejoin="round" filter="url(#d)" transform="rotate(15 282.358 26.367)"/><rect stroke="#66A1FF" stroke-width="3" stroke-linecap="round" stroke-linejoin="round" filter="url(#e)" transform="rotate(-15 24.943 434.72)" x="3.943" y="416.72" width="42" height="36" rx="6"/><path d="M22.292 444.962a6 6 0 0 1 6-6h4.769a6 6 0 0 1 6-6h3.23" stroke="#66A1FF" stroke-width="3" stroke-linecap="round" stroke-linejoin="round" filter="url(#f)" transform="rotate(-15 32.292 438.962)"/><circle fill="#66A1FF" filter="url(#g)" transform="rotate(-15 13.731 431.512)" cx="13.731" cy="431.512" r="3"/></g></svg>