<svg width="36" height="36" xmlns="http://www.w3.org/2000/svg"><g stroke="#3381FF" stroke-width="1.5" fill="none" fill-rule="evenodd" stroke-linecap="round" stroke-linejoin="round"><path d="M13.5 12A4.5 4.5 0 0 0 9 16.5M13.5 12a4.5 4.5 0 0 1 4.5 4.5"/><circle cx="13.5" cy="9.75" r="2.25"/><path d="M13.5 24A4.5 4.5 0 0 0 9 28.5M13.5 24a4.5 4.5 0 0 1 4.5 4.5"/><circle cx="13.5" cy="21.75" r="2.25"/><path d="M22.5 12a4.5 4.5 0 0 0-4.5 4.5M22.5 12a4.5 4.5 0 0 1 4.5 4.5"/><circle cx="22.5" cy="9.75" r="2.25"/><path d="M22.5 24a4.5 4.5 0 0 0-4.5 4.5M22.5 24a4.5 4.5 0 0 1 4.5 4.5"/><circle cx="22.5" cy="21.75" r="2.25"/></g></svg>