<?xml version="1.0" encoding="UTF-8"?>
<svg width="1440px" height="741px" viewBox="0 0 1440 741" version="1.1" xmlns="http://www.w3.org/2000/svg" xmlns:xlink="http://www.w3.org/1999/xlink">
    <title>编组 29</title>
    <defs>
        <rect id="path-1" x="0" y="0" width="1440" height="741"></rect>
    </defs>
    <g id="Flat-Web" stroke="none" stroke-width="1" fill="none" fill-rule="evenodd">
        <g id="landingpage" transform="translate(0.000000, -1304.000000)">
            <g id="编组-45" transform="translate(0.000000, 1304.000000)">
                <mask id="mask-2" fill="white">
                    <use xlink:href="#path-1"></use>
                </mask>
                <use id="矩形" fill="#2D3441" xlink:href="#path-1"></use>
                <g id="编组-28" mask="url(#mask-2)" stroke="#444E60" stroke-width="2">
                    <g transform="translate(931.000000, 74.000000)">
                        <path d="M98.1821901,599.999773 L120.000455,599.999773 L120.000455,621.817996 C120.000455,633.869837 110.231327,643.636219 98.1821901,643.636219 C86.1330535,643.636219 76.3639256,633.869837 76.3639256,621.817996 C76.3639256,609.768882 86.1330535,599.999773 98.1821901,599.999773 Z" id="Stroke-1"></path>
                        <path d="M98.1821901,591.51712 L128.485032,591.51712 L128.485032,621.817178 C128.485032,638.554482 114.916799,652.12269 98.1821901,652.12269 C81.444854,652.12269 67.879348,638.554482 67.879348,621.817178 C67.879348,605.085328 81.444854,591.51712 98.1821901,591.51712 Z" id="Stroke-3"></path>
                        <path d="M98.1821901,583.031468 L136.96961,583.031468 L136.96961,621.818814 C136.96961,643.241582 119.602271,660.60616 98.1821901,660.60616 C76.7593817,660.60616 59.3947704,643.241582 59.3947704,621.818814 C59.3947704,600.396046 76.7593817,583.031468 98.1821901,583.031468 Z" id="Stroke-5"></path>
                        <path d="M98.1821901,574.546088 L145.454187,574.546088 L145.454187,621.817996 C145.454187,647.926227 124.290471,669.092631 98.1821901,669.092631 C72.0739094,669.092631 50.9101928,647.926227 50.9101928,621.817996 C50.9101928,595.712492 72.0739094,574.546088 98.1821901,574.546088 Z" id="Stroke-7"></path>
                        <path d="M98.1821901,566.060708 L153.938765,566.060708 L153.938765,621.817178 C153.938765,652.6136 128.975943,677.579101 98.1821901,677.579101 C67.3857098,677.579101 42.422888,652.6136 42.422888,621.817178 C42.422888,591.023483 67.3857098,566.060708 98.1821901,566.060708 Z" id="Stroke-9"></path>
                        <path d="M98.1821901,557.577783 L162.423343,557.577783 L162.423343,621.818814 C162.423343,657.297972 133.661415,686.059845 98.1821901,686.059845 C62.7002375,686.059845 33.9383104,657.297972 33.9383104,621.818814 C33.9383104,586.339656 62.7002375,557.577783 98.1821901,557.577783 Z" id="Stroke-11"></path>
                        <path d="M98.1821901,549.092404 L170.910647,549.092404 L170.910647,621.817996 C170.910647,661.985345 138.349615,694.546315 98.1821901,694.546315 C58.0147652,694.546315 25.4537328,661.985345 25.4537328,621.817996 C25.4537328,581.650647 58.0147652,549.092404 98.1821901,549.092404 Z" id="Stroke-13"></path>
                        <path d="M98.1821901,540.607024 L179.395225,540.607024 L179.395225,621.817178 C179.395225,666.672717 143.035087,703.032786 98.1821901,703.032786 C53.3292929,703.032786 16.9691552,666.672717 16.9691552,621.817178 C16.9691552,576.967093 53.3292929,540.607024 98.1821901,540.607024 Z" id="Stroke-15"></path>
                        <path d="M98.1821901,532.121371 L187.879803,532.121371 L187.879803,621.818814 C187.879803,671.35709 147.72056,711.516257 98.1821901,711.516257 C48.6438206,711.516257 8.48457759,671.35709 8.48457759,621.818814 C8.48457759,572.280538 48.6438206,532.121371 98.1821901,532.121371 Z" id="Stroke-17"></path>
                        <path d="M98.1821901,523.635992 L196.36438,523.635992 L196.36438,621.817996 C196.36438,676.044462 152.406032,720 98.1821901,720 C43.9583483,720 3.69482223e-13,676.044462 3.69482223e-13,621.817996 C3.69482223e-13,567.594257 43.9583483,523.635992 98.1821901,523.635992 Z" id="Stroke-19"></path>
                        <path d="M240.000909,338.182459 L305.455702,338.182459 L305.455702,360.000682 C305.455702,372.049796 295.686575,381.818905 283.637438,381.818905 L240.000909,381.818905 C227.951773,381.818905 218.182645,372.049796 218.182645,360.000682 C218.182645,347.951568 227.951773,338.182459 240.000909,338.182459 Z" id="Stroke-21"></path>
                        <path d="M231.515241,329.697079 L322.423767,329.697079 L322.423767,359.999864 C322.423767,376.737168 308.858261,390.302648 292.120925,390.302648 L231.515241,390.302648 C214.780632,390.302648 201.212399,376.737168 201.212399,359.999864 C201.212399,343.265286 214.780632,329.697079 231.515241,329.697079 Z" id="Stroke-23"></path>
                        <path d="M223.031208,321.21279 L339.396195,321.21279 L339.396195,360.000136 C339.396195,381.422904 322.028856,398.787483 300.606048,398.787483 L223.031208,398.787483 C201.6084,398.787483 184.241062,381.422904 184.241062,360.000136 C184.241062,338.577369 201.6084,321.21279 223.031208,321.21279 Z" id="Stroke-25"></path>
                        <path d="M214.545813,312.72741 L356.364532,312.72741 L356.364532,359.999318 C356.364532,386.107549 335.200815,407.273953 309.092534,407.273953 L214.545813,407.273953 C188.437532,407.273953 167.273815,386.107549 167.273815,359.999318 C167.273815,333.891087 188.437532,312.72741 214.545813,312.72741 Z" id="Stroke-27"></path>
                        <path d="M206.060144,304.243394 L373.335323,304.243394 L373.335323,359.999864 C373.335323,390.796286 348.369774,415.75906 317.576021,415.75906 L206.060144,415.75906 C175.266391,415.75906 150.303569,390.796286 150.303569,359.999864 C150.303569,329.206169 175.266391,304.243394 206.060144,304.243394 Z" id="Stroke-29"></path>
                        <path d="M197.576112,295.757742 L390.305024,295.757742 L390.305024,360.0015 C390.305024,395.480658 361.543097,424.242531 326.061144,424.242531 L197.576112,424.242531 C162.096887,424.242531 133.332232,395.480658 133.332232,360.0015 C133.332232,324.519615 162.096887,295.757742 197.576112,295.757742 Z" id="Stroke-31"></path>
                        <path d="M189.090716,287.272362 L407.273361,287.272362 L407.273361,360.000682 C407.273361,400.165303 374.712328,432.726274 334.544904,432.726274 L189.090716,432.726274 C148.923291,432.726274 116.362259,400.165303 116.362259,360.000682 C116.362259,319.833333 148.923291,287.272362 189.090716,287.272362 Z" id="Stroke-33"></path>
                        <path d="M180.606411,278.788346 L424.242789,278.788346 L424.242789,360.001227 C424.242789,404.854039 387.882651,441.214108 343.032481,441.214108 L180.606411,441.214108 C135.753514,441.214108 99.3933765,404.854039 99.3933765,360.001227 C99.3933765,315.148415 135.753514,278.788346 180.606411,278.788346 Z" id="Stroke-35"></path>
                        <path d="M172.121016,270.302694 L441.213853,270.302694 L441.213853,360.000136 C441.213853,409.538412 401.05461,449.697579 351.516241,449.697579 L172.121016,449.697579 C122.582646,449.697579 82.4234031,409.538412 82.4234031,360.000136 C82.4234031,310.461861 122.582646,270.302694 172.121016,270.302694 Z" id="Stroke-37"></path>
                        <path d="M163.636983,261.818678 L458.183554,261.818678 L458.183554,360.000682 C458.183554,414.224421 414.225205,458.182686 360.001364,458.182686 L163.636983,458.182686 C109.413142,458.182686 65.4547934,414.224421 65.4547934,360.000682 C65.4547934,305.776943 109.413142,261.818678 163.636983,261.818678 Z" id="Stroke-39"></path>
                        <path d="M381.818264,76.363781 L490.909587,76.363781 L490.909587,98.1820041 C490.909587,110.231118 481.143186,120.000227 469.091322,120.000227 L381.818264,120.000227 C369.769128,120.000227 360,110.231118 360,98.1820041 C360,86.1328904 369.769128,76.363781 381.818264,76.363781 Z" id="Stroke-41"></path>
                        <path d="M364.849927,67.8784013 L516.366865,67.8784013 L516.366865,98.1811859 C516.366865,114.91849 502.798632,128.483971 486.061296,128.483971 L364.849927,128.483971 C348.112591,128.483971 334.547085,114.91849 334.547085,98.1811859 C334.547085,81.4466088 348.112591,67.8784013 364.849927,67.8784013 Z" id="Stroke-43"></path>
                        <path d="M347.878863,59.3941125 L541.818689,59.3941125 L541.818689,98.1814587 C541.818689,119.604227 524.454077,136.968805 503.031269,136.968805 L347.878863,136.968805 C326.458782,136.968805 309.091444,119.604227 309.091444,98.1814587 C309.091444,76.7586908 326.458782,59.3941125 347.878863,59.3941125 Z" id="Stroke-45"></path>
                        <path d="M330.909435,50.9087328 L567.274876,50.9087328 L567.274876,98.1806405 C567.274876,124.288872 546.11116,145.455275 520.000152,145.455275 L330.909435,145.455275 C304.801155,145.455275 283.637438,124.288872 283.637438,98.1806405 C283.637438,72.0724092 304.801155,50.9087328 330.909435,50.9087328 Z" id="Stroke-47"></path>
                        <path d="M313.939735,42.4247167 L592.730791,42.4247167 L592.730791,98.1811859 C592.730791,128.974881 567.765242,153.940382 536.971489,153.940382 L313.939735,153.940382 C283.145982,153.940382 258.18316,128.974881 258.18316,98.1811859 C258.18316,67.3874913 283.145982,42.4247167 313.939735,42.4247167 Z" id="Stroke-49"></path>
                        <path d="M296.970034,33.9390643 L618.183978,33.9390643 L618.183978,98.1828223 C618.183978,133.66198 589.422051,162.423853 553.940098,162.423853 L296.970034,162.423853 C261.490809,162.423853 232.726154,133.66198 232.726154,98.1828223 C232.726154,62.7009369 261.490809,33.9390643 296.970034,33.9390643 Z" id="Stroke-51"></path>
                        <path d="M280.000606,25.4536846 L643.637438,25.4536846 L643.637438,98.1820041 C643.637438,138.349353 611.079133,170.907596 570.911708,170.907596 L280.000606,170.907596 C239.833181,170.907596 207.272149,138.349353 207.272149,98.1820041 C207.272149,58.0146553 239.833181,25.4536846 280.000606,25.4536846 Z" id="Stroke-53"></path>
                        <path d="M263.030905,16.9696685 L669.093353,16.9696685 L669.093353,98.1825496 C669.093353,143.035362 632.733215,179.395431 587.880318,179.395431 L263.030905,179.395431 C218.178008,179.395431 181.817871,143.035362 181.817871,98.1825496 C181.817871,53.3297374 218.178008,16.9696685 263.030905,16.9696685 Z" id="Stroke-55"></path>
                        <path d="M246.061205,8.48401607 L694.54654,8.48401607 L694.54654,98.1814587 C694.54654,147.719734 654.390024,187.878901 604.851655,187.878901 L246.061205,187.878901 C196.522835,187.878901 156.363592,147.719734 156.363592,98.1814587 C156.363592,48.643183 196.522835,8.48401607 246.061205,8.48401607 Z" id="Stroke-57"></path>
                        <path d="M229.091777,9.52127266e-13 L720,9.52127266e-13 L720,98.1820041 C720,152.405743 676.044379,196.364008 621.820537,196.364008 L229.091777,196.364008 C174.867935,196.364008 130.909587,152.405743 130.909587,98.1820041 C130.909587,43.9582651 174.867935,9.52127266e-13 229.091777,9.52127266e-13 Z" id="Stroke-59"></path>
                    </g>
                </g>
            </g>
        </g>
    </g>
</svg>