<?xml version="1.0" encoding="UTF-8"?>
<svg width="36px" height="36px" viewBox="0 0 36 36" version="1.1" xmlns="http://www.w3.org/2000/svg" xmlns:xlink="http://www.w3.org/1999/xlink">
    <title>矩形备份 25</title>
    <g id="Flat-Web" stroke="none" stroke-width="1" fill="none" fill-rule="evenodd" stroke-linecap="round" stroke-linejoin="round">
        <g id="landingpage" transform="translate(-120.000000, -1830.000000)" stroke="#3381FF" stroke-width="1.5">
            <g id="编组-24" transform="translate(0.000000, 1304.000000)">
                <g id="编组-23" transform="translate(120.000000, 160.000000)">
                    <g id="invite备份-7" transform="translate(0.000000, 366.000000)">
                        <path d="M13.5,12 C11.0147186,12 9,14.0147186 9,16.5" id="椭圆形"></path>
                        <path d="M18,12 C15.5147186,12 13.5,14.0147186 13.5,16.5" id="椭圆形备份-9" transform="translate(15.750000, 14.250000) scale(-1, 1) translate(-15.750000, -14.250000) "></path>
                        <circle id="椭圆形" cx="13.5" cy="9.75" r="2.25"></circle>
                        <path d="M13.5,24 C11.0147186,24 9,26.0147186 9,28.5" id="椭圆形"></path>
                        <path d="M18,24 C15.5147186,24 13.5,26.0147186 13.5,28.5" id="椭圆形备份-9" transform="translate(15.750000, 26.250000) scale(-1, 1) translate(-15.750000, -26.250000) "></path>
                        <circle id="椭圆形" cx="13.5" cy="21.75" r="2.25"></circle>
                        <path d="M22.5,12 C20.0147186,12 18,14.0147186 18,16.5" id="椭圆形"></path>
                        <path d="M27,12 C24.5147186,12 22.5,14.0147186 22.5,16.5" id="椭圆形备份-9" transform="translate(24.750000, 14.250000) scale(-1, 1) translate(-24.750000, -14.250000) "></path>
                        <circle id="椭圆形" cx="22.5" cy="9.75" r="2.25"></circle>
                        <path d="M22.5,24 C20.0147186,24 18,26.0147186 18,28.5" id="椭圆形"></path>
                        <path d="M27,24 C24.5147186,24 22.5,26.0147186 22.5,28.5" id="椭圆形备份-9" transform="translate(24.750000, 26.250000) scale(-1, 1) translate(-24.750000, -26.250000) "></path>
                        <circle id="椭圆形" cx="22.5" cy="21.75" r="2.25"></circle>
                    </g>
                </g>
            </g>
        </g>
    </g>
</svg>
