<svg xmlns="http://www.w3.org/2000/svg" xmlns:xlink="http://www.w3.org/1999/xlink" viewBox="0 0 1440 266"><defs><linearGradient id="c" x1="53.414%" x2="43.526%" y1="50.76%" y2="44.631%"><stop offset="0%" stop-color="#3381FF" stop-opacity=".236"/><stop offset="100%" stop-color="#3381FF" stop-opacity=".058"/></linearGradient><linearGradient id="d" x1="53.414%" x2="43.526%" y1="50.738%" y2="44.787%"><stop offset="0%" stop-color="#3381FF" stop-opacity=".236"/><stop offset="100%" stop-color="#3381FF" stop-opacity=".058"/></linearGradient><linearGradient id="e" x1="53.414%" x2="43.526%" y1="50.716%" y2="44.94%"><stop offset="0%" stop-color="#3381FF" stop-opacity=".236"/><stop offset="100%" stop-color="#3381FF" stop-opacity=".058"/></linearGradient><linearGradient id="f" x1="53.414%" x2="43.526%" y1="50.695%" y2="45.091%"><stop offset="0%" stop-color="#3381FF" stop-opacity=".236"/><stop offset="100%" stop-color="#3381FF" stop-opacity=".058"/></linearGradient><linearGradient id="g" x1="53.414%" x2="43.526%" y1="50.674%" y2="45.241%"><stop offset="0%" stop-color="#3381FF" stop-opacity=".236"/><stop offset="100%" stop-color="#3381FF" stop-opacity=".058"/></linearGradient><linearGradient id="h" x1="53.414%" x2="43.526%" y1="50.653%" y2="45.388%"><stop offset="0%" stop-color="#3381FF" stop-opacity=".236"/><stop offset="100%" stop-color="#3381FF" stop-opacity=".058"/></linearGradient><linearGradient id="i" x1="53.414%" x2="43.526%" y1="50.632%" y2="45.534%"><stop offset="0%" stop-color="#3381FF" stop-opacity=".236"/><stop offset="100%" stop-color="#3381FF" stop-opacity=".058"/></linearGradient><linearGradient id="j" x1="53.414%" x2="43.526%" y1="50.612%" y2="45.677%"><stop offset="0%" stop-color="#3381FF" stop-opacity=".236"/><stop offset="100%" stop-color="#3381FF" stop-opacity=".058"/></linearGradient><linearGradient id="k" x1="53.414%" x2="43.526%" y1="50.592%" y2="45.818%"><stop offset="0%" stop-color="#3381FF" stop-opacity=".236"/><stop offset="100%" stop-color="#3381FF" stop-opacity=".058"/></linearGradient><linearGradient id="l" x1="53.414%" x2="43.526%" y1="50.572%" y2="45.958%"><stop offset="0%" stop-color="#3381FF" stop-opacity=".236"/><stop offset="100%" stop-color="#3381FF" stop-opacity=".058"/></linearGradient><linearGradient id="m" x1="53.414%" x2="43.526%" y1="50.553%" y2="46.095%"><stop offset="0%" stop-color="#3381FF" stop-opacity=".236"/><stop offset="100%" stop-color="#3381FF" stop-opacity=".058"/></linearGradient><linearGradient id="n" x1="53.414%" x2="43.526%" y1="50.533%" y2="46.23%"><stop offset="0%" stop-color="#3381FF" stop-opacity=".236"/><stop offset="100%" stop-color="#3381FF" stop-opacity=".058"/></linearGradient><linearGradient id="o" x1="53.414%" x2="43.526%" y1="50.515%" y2="46.363%"><stop offset="0%" stop-color="#3381FF" stop-opacity=".236"/><stop offset="100%" stop-color="#3381FF" stop-opacity=".058"/></linearGradient><linearGradient id="p" x1="53.414%" x2="43.526%" y1="50.496%" y2="46.494%"><stop offset="0%" stop-color="#3381FF" stop-opacity=".236"/><stop offset="100%" stop-color="#3381FF" stop-opacity=".058"/></linearGradient><linearGradient id="q" x1="53.414%" x2="43.526%" y1="50.478%" y2="46.623%"><stop offset="0%" stop-color="#3381FF" stop-opacity=".236"/><stop offset="100%" stop-color="#3381FF" stop-opacity=".058"/></linearGradient><linearGradient id="r" x1="53.414%" x2="43.526%" y1="50.46%" y2="46.75%"><stop offset="0%" stop-color="#3381FF" stop-opacity=".236"/><stop offset="100%" stop-color="#3381FF" stop-opacity=".058"/></linearGradient><linearGradient id="s" x1="53.414%" x2="43.526%" y1="50.444%" y2="46.864%"><stop offset="0%" stop-color="#3381FF" stop-opacity=".236"/><stop offset="100%" stop-color="#3381FF" stop-opacity=".058"/></linearGradient><linearGradient id="t" x1="53.414%" x2="43.526%" y1="50.466%" y2="46.707%"><stop offset="0%" stop-color="#3381FF" stop-opacity=".236"/><stop offset="100%" stop-color="#3381FF" stop-opacity=".058"/></linearGradient><linearGradient id="u" x1="53.414%" x2="43.526%" y1="50.489%" y2="46.546%"><stop offset="0%" stop-color="#3381FF" stop-opacity=".236"/><stop offset="100%" stop-color="#3381FF" stop-opacity=".058"/></linearGradient><linearGradient id="v" x1="53.414%" x2="43.526%" y1="50.52%" y2="46.324%"><stop offset="0%" stop-color="#3381FF" stop-opacity=".236"/><stop offset="100%" stop-color="#3381FF" stop-opacity=".058"/></linearGradient><linearGradient id="w" x1="53.414%" x2="43.526%" y1="50.566%" y2="46.002%"><stop offset="0%" stop-color="#3381FF" stop-opacity=".236"/><stop offset="100%" stop-color="#3381FF" stop-opacity=".058"/></linearGradient><linearGradient id="x" x1="53.414%" x2="43.526%" y1="50.613%" y2="45.666%"><stop offset="0%" stop-color="#3381FF" stop-opacity=".236"/><stop offset="100%" stop-color="#3381FF" stop-opacity=".058"/></linearGradient><linearGradient id="y" x1="53.414%" x2="43.526%" y1="50.663%" y2="45.315%"><stop offset="0%" stop-color="#3381FF" stop-opacity=".236"/><stop offset="100%" stop-color="#3381FF" stop-opacity=".058"/></linearGradient><linearGradient id="z" x1="53.414%" x2="43.526%" y1="50.715%" y2="44.95%"><stop offset="0%" stop-color="#3381FF" stop-opacity=".236"/><stop offset="100%" stop-color="#3381FF" stop-opacity=".058"/></linearGradient><linearGradient id="A" x1="53.414%" x2="43.526%" y1="50.768%" y2="44.57%"><stop offset="0%" stop-color="#3381FF" stop-opacity=".236"/><stop offset="100%" stop-color="#3381FF" stop-opacity=".058"/></linearGradient><linearGradient id="B" x1="53.414%" x2="43.526%" y1="50.824%" y2="44.176%"><stop offset="0%" stop-color="#3381FF" stop-opacity=".236"/><stop offset="100%" stop-color="#3381FF" stop-opacity=".058"/></linearGradient><path id="a" d="M0 0h1440v266H0z"/></defs><g fill="none" fill-rule="evenodd"><mask id="b" fill="#fff"><use xlink:href="#a"/></mask><use fill="#3381FF" fill-opacity=".04" xlink:href="#a"/><g mask="url(#b)"><path stroke="url(#c)" d="m0 234.56 102.231-102.23c75.799-75.8 198.693-75.8 274.492 0l101.918 101.917c75.799 75.798 198.693 75.798 274.492 0 75.799-75.799 198.693-75.799 274.492 0l124.428 124.428c75.799 75.8 198.692 75.8 274.491 0L1602 183.22" transform="translate(49 152)"/><path stroke="url(#d)" d="m1.352 238.962 108.46-108.46c75.521-75.522 197.967-75.522 273.49 0l97.842 97.843c75.522 75.521 197.968 75.521 273.491 0l1.401-1.401c75.523-75.522 197.968-75.522 273.49 0l125.004 125.003c75.523 75.522 197.97 75.522 273.491 0l173.602-173.602" transform="translate(49 152)"/><path stroke="url(#e)" d="M2.704 243.364 117.39 128.677c75.247-75.246 197.245-75.246 272.491 0l93.765 93.765c75.246 75.246 197.245 75.246 272.491 0l2.801-2.802c75.246-75.246 197.245-75.246 272.491 0l125.58 125.579c75.245 75.247 197.243 75.247 272.49 0l171.748-171.75" transform="translate(49 152)"/><path stroke="url(#f)" d="M4.056 247.765 124.97 126.851c74.97-74.97 196.52-74.97 271.49 0l89.689 89.688c74.97 74.97 196.52 74.97 271.49 0l4.202-4.202c74.97-74.969 196.52-74.969 271.49 0l126.155 126.155c74.969 74.97 196.519 74.97 271.49 0l169.894-169.896" transform="translate(49 152)"/><path stroke="url(#g)" d="M5.408 252.167 132.55 125.025c74.693-74.694 195.796-74.694 270.49 0l85.61 85.612c74.695 74.693 195.798 74.693 270.49 0l5.604-5.602c74.694-74.695 195.796-74.695 270.49 0l126.729 126.729c74.694 74.693 195.796 74.693 270.489 0l168.042-168.042" transform="translate(49 152)"/><path stroke="url(#h)" d="m6.76 256.569 133.369-133.37c74.418-74.417 195.072-74.417 269.49 0l81.535 81.536c74.417 74.417 195.072 74.417 269.489 0l7.003-7.004c74.418-74.417 195.072-74.417 269.49 0l127.304 127.305c74.418 74.417 195.072 74.417 269.49 0l166.187-166.19" transform="translate(49 152)"/><path stroke="url(#i)" d="m8.112 260.971 139.597-139.598c74.14-74.14 194.348-74.14 268.489 0l77.458 77.458c74.14 74.142 194.348 74.142 268.489 0l8.404-8.403c74.14-74.142 194.348-74.142 268.489 0l127.879 127.88c74.142 74.141 194.348 74.141 268.489 0l164.335-164.335" transform="translate(49 152)"/><path stroke="url(#j)" d="m9.463 265.373 145.825-145.824c73.865-73.865 193.624-73.865 267.488 0l73.382 73.38c73.865 73.866 193.623 73.866 267.49 0l9.803-9.803c73.865-73.865 193.624-73.865 267.488 0l128.455 128.454c73.865 73.865 193.624 73.865 267.488 0l162.482-162.48" transform="translate(49 152)"/><path stroke="url(#k)" d="m10.816 269.775 152.052-152.053c73.589-73.588 192.9-73.588 266.488 0l69.305 69.305c73.589 73.589 192.9 73.589 266.488 0l11.206-11.205c73.587-73.589 192.898-73.589 266.486 0l129.032 129.03c73.588 73.589 192.899 73.589 266.487 0l160.628-160.628" transform="translate(49 152)"/><path stroke="url(#l)" d="m12.168 274.176 158.28-158.28c73.311-73.312 192.174-73.312 265.487 0l65.228 65.228c73.313 73.313 192.175 73.313 265.487 0l12.606-12.605c73.313-73.313 192.176-73.313 265.489 0l129.605 129.605c73.313 73.313 192.175 73.313 265.486 0l158.775-158.774" transform="translate(49 152)"/><path stroke="url(#m)" d="M13.52 278.579 178.027 114.07c73.036-73.036 191.45-73.036 264.488 0l61.15 61.152c73.037 73.036 191.452 73.036 264.488 0l14.007-14.007c73.036-73.036 191.45-73.036 264.487 0l130.18 130.18c73.037 73.037 191.452 73.037 264.488 0l156.92-156.92" transform="translate(49 152)"/><path stroke="url(#n)" d="m14.872 282.98 170.735-170.735c72.76-72.76 190.727-72.76 263.487 0l57.074 57.075c72.76 72.76 190.727 72.76 263.487 0l15.407-15.407c72.76-72.76 190.727-72.76 263.487 0l130.756 130.755c72.76 72.76 190.727 72.76 263.486 0l155.068-155.066" transform="translate(49 152)"/><path stroke="url(#o)" d="M16.223 287.382 193.186 110.42c72.484-72.484 190.003-72.484 262.487 0l52.997 52.997c72.484 72.485 190.003 72.485 262.487 0l16.807-16.806c72.484-72.484 190.003-72.484 262.487 0l131.331 131.331c72.483 72.483 190.002 72.483 262.486 0l153.213-153.214" transform="translate(49 152)"/><path stroke="url(#p)" d="m17.575 291.784 183.19-183.19c72.208-72.208 189.28-72.208 261.487 0l48.921 48.92c72.207 72.208 189.278 72.208 261.485 0l18.21-18.208c72.206-72.207 189.277-72.207 261.484 0l131.907 131.907c72.208 72.208 189.28 72.208 261.486 0l151.36-151.36" transform="translate(49 152)"/><path stroke="url(#q)" d="m18.927 296.186 189.418-189.418c71.931-71.932 188.555-71.932 260.486 0l44.844 44.844c71.931 71.931 188.555 71.931 260.486 0l19.608-19.609c71.931-71.93 188.555-71.93 260.486 0l132.481 132.482c71.932 71.931 188.555 71.931 260.486 0l149.506-149.506" transform="translate(49 152)"/><path stroke="url(#r)" d="m20.28 300.587 195.644-195.645c71.656-71.654 187.831-71.654 259.486 0l40.767 40.767c71.655 71.654 187.831 71.654 259.486 0l21.01-21.01c71.654-71.653 187.83-71.653 259.484 0l133.057 133.058c71.655 71.654 187.83 71.654 259.485 0l147.653-147.653" transform="translate(49 152)"/><path stroke="url(#s)" d="m21.63 304.99 201.875-201.874c71.378-71.378 187.106-71.378 258.484 0l36.69 36.69c71.38 71.379 187.107 71.379 258.486 0l22.41-22.41c71.378-71.377 187.106-71.377 258.485 0l133.632 133.633c71.378 71.379 187.106 71.379 258.484 0l145.8-145.8" transform="translate(49 152)"/><path stroke="url(#t)" d="m22.983 309.391 208.101-208.1c71.103-71.103 186.382-71.103 257.484 0l32.615 32.614c71.102 71.101 186.382 71.101 257.484 0l23.811-23.81c71.102-71.103 186.381-71.103 257.484 0L1194.169 244.3c71.103 71.103 186.382 71.103 257.484 0l143.946-143.946" transform="translate(49 152)"/><path stroke="url(#u)" d="M24.335 313.793 238.664 99.464c70.826-70.826 185.658-70.826 256.483 0l28.538 28.537c70.826 70.826 185.658 70.826 256.484 0l25.211-25.21c70.826-70.826 185.658-70.826 256.484 0l134.783 134.782c70.826 70.826 185.657 70.826 256.483 0l142.093-142.091" transform="translate(49 152)"/><path stroke="url(#v)" d="M25.687 318.195 246.243 97.639c70.55-70.55 184.934-70.55 255.484 0l24.46 24.46c70.55 70.55 184.934 70.55 255.484 0l26.611-26.611c70.55-70.55 184.934-70.55 255.484 0l135.358 135.357c70.55 70.55 184.934 70.55 255.483 0l140.24-140.238" transform="translate(49 152)"/><path stroke="url(#w)" d="M27.04 322.597 253.822 95.813c70.274-70.274 184.21-70.274 254.483 0l20.384 20.384c70.273 70.273 184.21 70.273 254.483 0l28.012-28.013c70.274-70.273 184.21-70.273 254.483 0l135.934 135.934c70.273 70.273 184.208 70.273 254.482 0L1594.47 85.732" transform="translate(49 152)"/><path stroke="url(#x)" d="M28.39 326.999 261.404 93.988c69.997-69.998 183.485-69.998 253.483 0l16.307 16.307c69.997 69.997 183.485 69.997 253.482 0l29.413-29.413c69.997-69.997 183.486-69.997 253.483 0l136.508 136.509c69.998 69.997 183.485 69.997 253.483 0l136.53-136.532" transform="translate(49 152)"/><path stroke="url(#y)" d="M29.743 331.4 268.982 92.16c69.72-69.72 182.76-69.72 252.483 0l12.23 12.232c69.72 69.72 182.76 69.72 252.482 0l30.814-30.813c69.72-69.721 182.76-69.721 252.482 0l137.083 137.083c69.722 69.72 182.762 69.72 252.482 0l134.679-134.678" transform="translate(49 152)"/><path stroke="url(#z)" d="M31.095 335.802 276.562 90.335c69.445-69.445 182.037-69.445 251.482 0l8.154 8.154c69.444 69.445 182.037 69.445 251.48 0l32.215-32.214c69.445-69.445 182.037-69.445 251.482 0l137.658 137.66c69.446 69.444 182.038 69.444 251.483 0L1593.34 71.108" transform="translate(49 152)"/><path stroke="url(#A)" d="M32.447 340.205 284.14 88.51c69.169-69.168 181.313-69.168 250.482 0l4.077 4.077c69.168 69.169 181.313 69.169 250.48 0l33.616-33.614c69.168-69.17 181.313-69.17 250.48 0l138.235 138.234c69.169 69.168 181.312 69.168 250.48 0l130.972-130.971" transform="translate(49 152)"/><path stroke="url(#B)" d="M33.799 344.606 291.72 86.684c68.892-68.892 180.589-68.892 249.48 0 68.893 68.893 180.59 68.893 249.482 0l35.015-35.015c68.893-68.892 180.589-68.892 249.48 0l138.81 138.809c68.893 68.893 180.589 68.893 249.48 0l129.119-129.117" transform="translate(49 152)"/></g></g></svg>