<?xml version="1.0" standalone="no"?><!DOCTYPE svg PUBLIC "-//W3C//DTD SVG 1.1//EN" "http://www.w3.org/Graphics/SVG/1.1/DTD/svg11.dtd"><svg t="1619580563046" class="icon" viewBox="0 0 1024 1024" version="1.1" xmlns="http://www.w3.org/2000/svg" p-id="2022" xmlns:xlink="http://www.w3.org/1999/xlink" width="200" height="200"><defs><style type="text/css"></style></defs><path d="M123.65035 178.347C361.64535-98.603 802.98935-43.947 967.93835 279.68H571.43735c-71.424 0-117.547-1.621-167.51 24.661-58.709 30.934-102.997 88.235-118.485 155.52L123.65035 178.39z" fill="#EA4335" p-id="2023"></path><path d="M341.67735 512c0 93.867 76.33 170.24 170.154 170.24 93.867 0 170.155-76.373 170.155-170.24s-76.33-170.24-170.155-170.24c-93.866 0-170.154 76.373-170.154 170.24z" fill="#4285F4" p-id="2024"></path><path d="M577.87935 734.848c-95.53 28.373-207.274-3.115-268.501-108.8-46.763-80.64-170.24-295.765-226.347-393.557-196.565 301.226-27.136 711.808 329.686 781.866l165.12-279.509z" fill="#34A853" p-id="2025"></path><path d="M669.86935 341.76a233.13 233.13 0 0 1 43.008 286.635c-40.576 69.973-170.155 288.682-232.96 394.581 367.658 22.656 635.733-337.664 514.645-681.259H669.86935z" fill="#FBBC05" p-id="2026"></path></svg>